<mxfile host="app.diagrams.net" modified="2022-03-30T16:11:08.620Z" agent="5.0 (Windows)" etag="jIAPxpHSw9SwOOXgF1FP" version="17.3.0" type="github">
  <diagram id="A6SvcX7zekIFc5IsAOxx" name="Page-1">
    <mxGraphModel dx="823" dy="743" grid="1" gridSize="10" guides="1" tooltips="1" connect="1" arrows="1" fold="1" page="1" pageScale="1" pageWidth="1169" pageHeight="827" math="0" shadow="0">
      <root>
        <mxCell id="0" />
        <mxCell id="1" parent="0" />
        <mxCell id="-G3jtmWxvwMSKHZGATGl-7" value="Pi2Go Starting position&lt;br&gt;---&amp;gt;&amp;gt;" style="rounded=0;whiteSpace=wrap;html=1;rotation=0;" parent="1" vertex="1">
          <mxGeometry x="100" y="400" width="140" height="80" as="geometry" />
        </mxCell>
        <mxCell id="-G3jtmWxvwMSKHZGATGl-1" value="" style="endArrow=none;html=1;rounded=0;" parent="1" edge="1">
          <mxGeometry width="50" height="50" relative="1" as="geometry">
            <mxPoint x="80" y="680" as="sourcePoint" />
            <mxPoint x="440" y="680" as="targetPoint" />
          </mxGeometry>
        </mxCell>
        <mxCell id="-G3jtmWxvwMSKHZGATGl-2" value="" style="endArrow=none;html=1;rounded=0;" parent="1" edge="1">
          <mxGeometry width="50" height="50" relative="1" as="geometry">
            <mxPoint x="440" y="800" as="sourcePoint" />
            <mxPoint x="440" y="680" as="targetPoint" />
          </mxGeometry>
        </mxCell>
        <mxCell id="-G3jtmWxvwMSKHZGATGl-3" value="" style="endArrow=none;html=1;rounded=0;" parent="1" edge="1">
          <mxGeometry width="50" height="50" relative="1" as="geometry">
            <mxPoint x="440" y="800" as="sourcePoint" />
            <mxPoint x="560" y="800" as="targetPoint" />
          </mxGeometry>
        </mxCell>
        <mxCell id="-G3jtmWxvwMSKHZGATGl-4" value="" style="endArrow=none;html=1;rounded=0;" parent="1" edge="1">
          <mxGeometry width="50" height="50" relative="1" as="geometry">
            <mxPoint x="560" y="800" as="sourcePoint" />
            <mxPoint x="560" y="680" as="targetPoint" />
          </mxGeometry>
        </mxCell>
        <mxCell id="-G3jtmWxvwMSKHZGATGl-5" value="" style="endArrow=none;html=1;rounded=0;" parent="1" edge="1">
          <mxGeometry width="50" height="50" relative="1" as="geometry">
            <mxPoint x="880" y="680" as="sourcePoint" />
            <mxPoint x="560" y="680" as="targetPoint" />
          </mxGeometry>
        </mxCell>
        <mxCell id="-G3jtmWxvwMSKHZGATGl-10" value="" style="endArrow=none;html=1;rounded=0;" parent="1" edge="1">
          <mxGeometry width="50" height="50" relative="1" as="geometry">
            <mxPoint x="880" y="200" as="sourcePoint" />
            <mxPoint x="880" y="680" as="targetPoint" />
          </mxGeometry>
        </mxCell>
        <mxCell id="-G3jtmWxvwMSKHZGATGl-11" value="" style="endArrow=none;html=1;rounded=0;" parent="1" edge="1">
          <mxGeometry width="50" height="50" relative="1" as="geometry">
            <mxPoint x="80" y="200" as="sourcePoint" />
            <mxPoint x="880" y="200" as="targetPoint" />
          </mxGeometry>
        </mxCell>
        <mxCell id="-G3jtmWxvwMSKHZGATGl-12" value="" style="endArrow=none;html=1;rounded=0;" parent="1" edge="1">
          <mxGeometry width="50" height="50" relative="1" as="geometry">
            <mxPoint x="80" y="200" as="sourcePoint" />
            <mxPoint x="80" y="680" as="targetPoint" />
          </mxGeometry>
        </mxCell>
        <mxCell id="-G3jtmWxvwMSKHZGATGl-25" value="" style="endArrow=classic;startArrow=classic;html=1;shadow=0;strokeColor=default;curved=1;" parent="1" edge="1">
          <mxGeometry width="50" height="50" relative="1" as="geometry">
            <mxPoint x="40" y="800" as="sourcePoint" />
            <mxPoint x="1040" y="800" as="targetPoint" />
          </mxGeometry>
        </mxCell>
        <mxCell id="-G3jtmWxvwMSKHZGATGl-26" value="" style="endArrow=classic;startArrow=classic;html=1;shadow=0;strokeColor=default;curved=1;" parent="1" edge="1">
          <mxGeometry width="50" height="50" relative="1" as="geometry">
            <mxPoint x="80" y="830" as="sourcePoint" />
            <mxPoint x="80" y="20" as="targetPoint" />
          </mxGeometry>
        </mxCell>
        <mxCell id="-G3jtmWxvwMSKHZGATGl-29" value="(4, 8)" style="text;html=1;strokeColor=none;fillColor=none;align=center;verticalAlign=middle;whiteSpace=wrap;rounded=0;" parent="1" vertex="1">
          <mxGeometry x="200" y="460" width="40" height="20" as="geometry" />
        </mxCell>
        <mxCell id="-G3jtmWxvwMSKHZGATGl-32" value="" style="group" parent="1" vertex="1" connectable="0">
          <mxGeometry x="235" y="475" width="10" height="10" as="geometry" />
        </mxCell>
        <mxCell id="-G3jtmWxvwMSKHZGATGl-30" value="" style="endArrow=none;html=1;shadow=0;strokeColor=default;curved=1;" parent="-G3jtmWxvwMSKHZGATGl-32" edge="1">
          <mxGeometry width="50" height="50" relative="1" as="geometry">
            <mxPoint as="sourcePoint" />
            <mxPoint x="10" y="10" as="targetPoint" />
          </mxGeometry>
        </mxCell>
        <mxCell id="-G3jtmWxvwMSKHZGATGl-31" value="" style="endArrow=none;html=1;shadow=0;strokeColor=default;curved=1;" parent="-G3jtmWxvwMSKHZGATGl-32" edge="1">
          <mxGeometry width="50" height="50" relative="1" as="geometry">
            <mxPoint y="10" as="sourcePoint" />
            <mxPoint x="10" as="targetPoint" />
          </mxGeometry>
        </mxCell>
        <mxCell id="-G3jtmWxvwMSKHZGATGl-34" value="" style="endArrow=none;html=1;shadow=0;strokeColor=default;curved=1;" parent="1" edge="1">
          <mxGeometry width="50" height="50" relative="1" as="geometry">
            <mxPoint x="435" y="675" as="sourcePoint" />
            <mxPoint x="445" y="685" as="targetPoint" />
          </mxGeometry>
        </mxCell>
        <mxCell id="-G3jtmWxvwMSKHZGATGl-35" value="" style="endArrow=none;html=1;shadow=0;strokeColor=default;curved=1;fontStyle=4" parent="1" edge="1">
          <mxGeometry width="50" height="50" relative="1" as="geometry">
            <mxPoint x="435" y="685" as="sourcePoint" />
            <mxPoint x="445" y="675" as="targetPoint" />
            <Array as="points">
              <mxPoint x="440" y="680" />
            </Array>
          </mxGeometry>
        </mxCell>
        <mxCell id="-G3jtmWxvwMSKHZGATGl-36" value="(9, 3)" style="text;html=1;strokeColor=none;fillColor=none;align=center;verticalAlign=middle;whiteSpace=wrap;rounded=0;" parent="1" vertex="1">
          <mxGeometry x="400" y="680" width="40" height="20" as="geometry" />
        </mxCell>
        <mxCell id="-G3jtmWxvwMSKHZGATGl-38" value="" style="endArrow=none;html=1;shadow=0;strokeColor=default;curved=1;" parent="1" edge="1">
          <mxGeometry width="50" height="50" relative="1" as="geometry">
            <mxPoint x="555" y="685" as="sourcePoint" />
            <mxPoint x="565" y="675" as="targetPoint" />
          </mxGeometry>
        </mxCell>
        <mxCell id="-G3jtmWxvwMSKHZGATGl-39" value="" style="endArrow=none;html=1;shadow=0;strokeColor=default;curved=1;" parent="1" edge="1">
          <mxGeometry width="50" height="50" relative="1" as="geometry">
            <mxPoint x="565" y="685" as="sourcePoint" />
            <mxPoint x="555" y="675" as="targetPoint" />
          </mxGeometry>
        </mxCell>
        <mxCell id="-G3jtmWxvwMSKHZGATGl-40" value="(12, 3)" style="text;html=1;strokeColor=none;fillColor=none;align=center;verticalAlign=middle;whiteSpace=wrap;rounded=0;" parent="1" vertex="1">
          <mxGeometry x="560" y="680" width="40" height="20" as="geometry" />
        </mxCell>
        <mxCell id="-G3jtmWxvwMSKHZGATGl-41" value="0" style="text;html=1;strokeColor=none;fillColor=none;align=center;verticalAlign=middle;whiteSpace=wrap;rounded=0;" parent="1" vertex="1">
          <mxGeometry x="80" y="800" width="10" height="10" as="geometry" />
        </mxCell>
        <mxCell id="-G3jtmWxvwMSKHZGATGl-43" value="0" style="text;html=1;strokeColor=none;fillColor=none;align=center;verticalAlign=middle;whiteSpace=wrap;rounded=0;" parent="1" vertex="1">
          <mxGeometry x="70" y="790" width="10" height="10" as="geometry" />
        </mxCell>
        <mxCell id="uVvdik1A3hcTi3xnpCB2-1" value="Parking Space" style="text;html=1;strokeColor=none;fillColor=none;align=center;verticalAlign=middle;whiteSpace=wrap;rounded=0;" vertex="1" parent="1">
          <mxGeometry x="470" y="760" width="60" height="30" as="geometry" />
        </mxCell>
      </root>
    </mxGraphModel>
  </diagram>
</mxfile>
